# xmcd
#
# Track frame offsets:
#	150
#	12492
#	24442
#	37410
#	50817
#	63772
#	75522
#	87525
#	107547
#	118605
#	128922
#	141065
#	152177
#	167060
#	177322
#	188002
#	200515
#	213005
#
# Disc length: 3022 seconds
#
# Revision: 6
# Processed by: cddbd v1.5.2PL0 Copyright (c) Steve Scherf et al.
# Submitted via: audiograbber 1.83.01
#
DISCID=f70bcc12
DTITLE=Diverse - Unforgettable 36 Timeless Classics (1-2)
DYEAR=1995
DGENRE=Oldies
TTITLE0=Patsy Cline - Crazy
TTITLE1=Tony Christie - The Most Beautiful Girl In The World
TTITLE2=Nat King Cole - Smile
TTITLE3=Dean Martin - Volare
TTITLE4=Tony Bennett - (I Left My Heart) In San Francisco
TTITLE5=Platters - Only You
TTITLE6=Ketty Lester - Love Letters
TTITLE7=Bobby Vinton - Blue Velvet
TTITLE8=Mel Torme - Mountain Greenery
TTITLE9=Connie Francis - Who's Sorry Now
TTITLE10=Vic Damone - On The Street Where You Live
TTITLE11=Jack Jones - Wives And Lovers
TTITLE12=Peggy Lee - Mr. Wonderful
TTITLE13=Louis Armstrong - What A Wonderful World
TTITLE14=Slim Whitman - Rose Marie
TTITLE15=Matt Monro - Born Free
TTITLE16=Al Martino - Spanish Eyes
TTITLE17=Sarah Vaughan - Ain't Misbehavin'
EXTD=
EXTT0=Patsy Cline
EXTT1=Tony Christie
EXTT2=Nat King Cole
EXTT3=Dean Martin
EXTT4=Tony Bennett
EXTT5=The Platters
EXTT6=Ketty Lester
EXTT7=Bobby Vinton
EXTT8=Mel Torme
EXTT9=Connie Francis
EXTT10=Vic Damone
EXTT11=Jack Jones
EXTT12=Peggy Lee
EXTT13=Louis Armstrong
EXTT14=Slim Whitman
EXTT15=Matt Monro
EXTT16=Al Martino
EXTT17=Sarah Vaughan
PLAYORDER=
